<svg id="svg" version="1.1" xmlns="http://www.w3.org/2000/svg" xmlns:xlink="http://www.w3.org/1999/xlink" width="400" height="369.90291262135923" viewBox="0, 0, 400,369.90291262135923"><g id="svgg"><path id="path0" d="M255.583 184.647 C 254.297 184.809,253.903 184.977,252.400 186.004 C 247.514 189.344,237.552 192.010,216.869 195.515 C 211.663 196.397,207.138 197.200,206.814 197.299 C 206.274 197.465,206.186 197.714,205.764 200.257 C 205.510 201.784,205.032 203.799,204.702 204.733 C 204.371 205.667,203.900 207.524,203.656 208.859 C 203.013 212.364,202.320 214.895,201.115 218.139 C 199.365 222.845,198.255 225.042,190.286 239.563 C 182.685 253.416,172.938 277.169,168.338 293.051 C 164.514 306.254,161.165 324.670,161.165 332.493 C 161.165 333.259,160.947 334.157,160.561 334.988 C 159.821 336.578,159.786 338.083,160.456 339.559 C 161.852 342.636,162.249 342.713,177.427 342.847 C 212.184 343.153,227.708 343.754,231.026 344.922 C 232.790 345.543,235.624 344.500,236.640 342.857 C 237.248 341.872,237.232 342.248,237.182 330.400 L 237.145 321.602 232.590 321.598 C 220.360 321.588,215.279 320.530,213.480 317.617 L 212.743 316.422 212.716 309.000 C 212.701 304.918,212.868 294.693,213.087 286.279 L 213.484 270.980 214.146 269.851 C 216.293 266.186,221.354 266.459,223.198 270.338 C 223.605 271.196,223.606 272.012,223.214 287.985 C 222.988 297.197,222.806 306.169,222.809 307.925 L 222.816 311.117 225.667 311.298 C 236.465 311.981,272.661 310.168,281.917 308.480 C 285.296 307.864,291.553 304.114,295.813 300.153 C 296.770 299.263,296.849 297.512,296.235 290.777 C 293.462 260.362,282.124 216.141,272.276 197.330 C 267.571 188.343,265.685 186.476,261.645 186.800 C 259.530 186.969,258.595 186.678,257.126 185.391 C 256.486 184.831,255.997 184.595,255.583 184.647 M189.806 214.691 C 189.606 214.730,188.623 214.894,187.621 215.056 C 184.899 215.495,179.505 217.168,171.939 219.919 C 160.774 223.979,153.695 225.912,148.389 226.351 L 146.413 226.514 146.106 227.960 C 145.938 228.755,145.376 230.234,144.859 231.246 C 143.804 233.308,143.390 235.942,143.094 242.476 C 142.867 247.472,142.146 252.410,140.045 263.350 C 137.830 274.883,136.691 281.860,136.294 286.331 L 136.139 288.075 138.761 288.163 C 140.203 288.211,144.660 288.279,148.665 288.313 C 152.670 288.347,156.640 288.459,157.487 288.563 C 158.534 288.691,159.049 288.668,159.093 288.490 C 159.452 287.040,163.864 274.072,164.921 271.359 C 165.675 269.424,166.737 266.693,167.280 265.291 C 171.014 255.660,177.731 241.412,183.585 230.704 C 188.929 220.930,191.504 215.740,191.505 214.745 C 191.505 214.571,190.571 214.541,189.806 214.691 " stroke="none" fill="#8b2b14" fill-rule="evenodd"></path><path id="path1" d="M221.966 21.733 C 221.566 21.893,219.982 22.100,218.447 22.193 C 189.289 23.965,166.151 57.918,160.874 106.675 C 159.701 117.508,160.886 134.177,163.419 142.476 L 163.974 144.296 166.353 146.097 C 167.661 147.088,169.346 148.617,170.099 149.495 C 180.885 162.091,193.003 166.397,219.660 167.105 L 224.879 167.244 225.607 166.090 C 226.663 164.415,227.656 163.957,230.948 163.623 C 241.935 162.509,250.809 153.919,257.934 137.500 C 261.019 130.391,263.804 119.167,264.232 112.118 L 264.392 109.485 263.140 109.961 C 256.514 112.479,252.741 103.585,259.199 100.670 C 264.028 98.490,271.191 87.633,271.769 81.618 C 271.912 80.125,271.899 80.082,270.791 78.431 C 270.174 77.511,269.008 75.132,268.200 73.145 L 266.731 69.533 265.252 69.061 L 263.774 68.589 262.221 69.418 C 261.367 69.874,260.177 70.654,259.576 71.151 C 254.071 75.699,247.863 68.212,253.073 63.308 C 253.452 62.951,254.555 62.172,255.524 61.577 L 257.286 60.496 256.240 60.232 C 253.630 59.575,252.489 57.977,252.178 54.542 C 251.284 44.683,245.184 34.735,235.691 27.652 C 230.746 23.964,223.838 20.984,221.966 21.733 M215.663 71.237 C 221.853 74.233,219.894 83.964,212.722 85.837 C 207.399 87.227,203.077 80.900,205.899 75.850 C 208.879 70.517,211.559 69.251,215.663 71.237 M189.232 71.616 C 194.360 73.814,195.432 79.980,191.341 83.751 C 185.733 88.921,177.528 84.032,180.186 77.105 C 180.503 76.281,180.941 75.108,181.160 74.499 C 182.209 71.587,186.003 70.232,189.232 71.616 M58.490 116.192 C 56.637 120.994,57.271 123.600,62.374 132.160 C 64.508 135.738,66.262 139.131,66.262 139.679 C 66.262 141.014,68.414 139.240,69.129 137.316 C 71.996 129.600,67.891 117.288,61.587 114.699 C 59.429 113.812,59.404 113.824,58.490 116.192 M180.704 114.670 C 184.639 115.734,190.872 117.897,196.481 120.145 C 201.354 122.099,202.864 121.867,209.572 118.140 C 216.643 114.210,219.428 113.659,221.861 115.707 C 224.825 118.200,223.580 123.760,219.909 124.425 C 218.900 124.609,217.515 125.279,214.170 127.205 C 205.346 132.285,200.686 132.757,192.353 129.416 C 187.180 127.342,179.255 124.633,176.942 124.148 C 171.882 123.088,170.992 116.675,175.607 114.538 C 176.910 113.935,178.099 113.965,180.704 114.670 M44.916 118.959 C 42.767 120.267,40.494 122.744,40.155 124.151 C 40.059 124.551,39.715 125.337,39.392 125.897 C 38.738 127.031,38.810 127.362,39.935 128.398 C 40.298 128.732,41.862 130.425,43.411 132.160 C 48.960 138.378,53.543 141.990,55.881 141.990 C 56.394 141.990,56.645 142.498,53.363 136.893 C 49.077 129.572,47.673 125.899,47.400 121.291 C 47.322 119.985,47.193 118.881,47.112 118.836 C 46.449 118.473,45.641 118.518,44.916 118.959 M27.746 129.600 C 22.819 132.603,33.287 148.337,42.663 152.020 C 44.568 152.768,45.286 152.604,45.602 151.349 C 46.192 149.007,46.043 148.520,44.357 147.273 C 42.495 145.898,39.653 143.145,36.770 139.927 C 35.575 138.592,33.809 136.661,32.846 135.636 C 30.842 133.502,29.960 132.199,29.353 130.475 C 28.847 129.037,28.753 128.986,27.746 129.600 M97.937 134.816 C 95.858 135.344,91.715 137.225,88.350 139.169 C 87.749 139.516,87.077 139.801,86.857 139.803 C 86.636 139.805,85.872 140.078,85.158 140.410 C 83.394 141.231,81.570 141.231,80.133 140.410 C 79.552 140.078,79.050 139.806,79.018 139.806 C 78.987 139.806,78.834 140.229,78.679 140.745 C 77.150 145.847,71.660 150.243,66.817 150.243 C 65.912 150.243,65.662 150.368,64.911 151.199 C 63.329 152.951,62.479 153.089,56.342 152.595 C 55.837 152.554,55.726 152.711,55.428 153.883 C 53.078 163.133,43.798 165.322,34.095 158.915 C 30.780 156.726,25.772 152.182,23.987 149.744 L 23.422 148.973 21.522 149.101 C 20.478 149.171,19.565 149.287,19.494 149.358 C 19.014 149.837,23.126 154.444,31.671 163.001 C 43.583 174.931,44.755 176.618,45.738 183.252 C 45.827 183.853,46.025 185.164,46.178 186.165 C 46.377 187.466,46.462 197.956,46.475 222.937 C 46.493 258.515,46.571 262.304,47.469 270.995 C 48.024 276.373,47.917 276.132,50.485 277.793 C 52.792 279.285,54.917 280.040,58.029 280.474 C 59.639 280.699,63.026 281.504,66.246 282.426 C 75.417 285.054,76.438 285.181,81.068 284.258 C 86.311 283.214,93.451 282.792,106.189 282.775 C 116.026 282.762,117.429 282.582,120.735 280.905 C 122.207 280.158,124.222 279.314,125.213 279.031 L 127.015 278.515 127.686 274.507 C 128.056 272.303,128.974 267.280,129.726 263.345 C 131.851 252.233,133.212 243.525,132.901 243.033 C 132.883 243.005,131.617 243.404,130.088 243.919 C 128.558 244.433,122.336 246.076,116.262 247.569 C 90.722 253.846,81.718 256.594,79.390 258.822 C 75.893 262.169,70.615 260.111,70.636 255.408 C 70.648 252.856,72.645 250.597,76.669 248.582 C 78.878 247.476,79.026 247.357,78.832 246.834 C 78.718 246.526,78.445 245.559,78.226 244.687 C 78.007 243.814,77.581 242.737,77.281 242.294 C 76.768 241.538,75.526 238.047,74.649 234.899 C 74.437 234.135,73.650 232.060,72.900 230.287 C 65.828 213.552,64.836 194.019,70.237 177.834 C 73.038 169.444,73.264 168.483,73.953 162.061 C 74.110 160.591,75.266 159.580,82.524 154.565 C 91.059 148.669,98.051 144.728,100.960 144.177 C 105.777 143.263,106.861 137.379,102.637 135.079 C 101.368 134.387,99.937 134.307,97.937 134.816 M246.238 168.852 C 244.509 170.042,241.303 171.562,238.877 172.342 C 236.929 172.969,236.776 173.067,236.497 173.871 C 236.062 175.129,235.284 176.073,234.141 176.727 L 233.131 177.306 224.029 177.247 C 219.023 177.215,212.961 177.034,210.558 176.846 C 205.423 176.443,205.852 176.300,206.899 178.063 C 207.953 179.838,208.800 182.078,209.341 184.527 C 209.570 185.561,209.813 186.408,209.881 186.408 C 210.329 186.408,227.616 183.350,229.976 182.853 C 237.045 181.366,244.462 179.025,246.639 177.595 C 247.861 176.792,249.793 175.722,251.167 175.087 C 251.287 175.031,247.853 168.255,247.642 168.130 C 247.537 168.068,246.905 168.393,246.238 168.852 M276.820 319.327 C 272.477 319.814,265.514 320.339,257.888 320.754 C 254.150 320.958,250.191 321.187,249.090 321.263 L 247.087 321.403 247.087 329.094 C 247.087 335.409,247.025 336.875,246.736 337.286 C 245.235 339.430,246.190 343.217,248.534 344.412 C 250.015 345.168,277.877 345.179,279.356 344.424 C 281.745 343.205,282.572 340.261,281.302 337.500 C 280.856 336.531,280.330 327.627,280.337 321.177 C 280.339 319.524,280.260 318.941,280.036 318.966 C 279.870 318.985,278.422 319.147,276.820 319.327 " stroke="none" fill="#a36b43" fill-rule="evenodd"></path><path id="path2" d="M215.329 11.033 C 214.882 11.237,214.209 11.663,213.834 11.979 C 213.399 12.344,212.680 12.613,211.855 12.718 C 199.556 14.286,185.278 23.784,175.328 37.015 C 153.941 65.455,144.353 114.289,153.901 146.142 C 155.029 149.905,156.593 151.850,160.606 154.478 C 161.167 154.845,162.556 156.254,163.694 157.609 C 169.797 164.876,177.920 170.052,188.145 173.189 C 190.418 173.886,190.492 173.932,190.619 174.707 C 190.827 175.981,191.705 177.150,193.014 177.898 C 195.394 179.257,198.261 182.867,199.097 185.558 C 199.907 188.166,199.884 188.479,198.803 189.456 C 197.346 190.772,196.679 192.377,196.138 195.874 C 195.879 197.542,195.588 199.399,195.490 200.000 C 195.392 200.601,195.051 201.437,194.732 201.859 C 194.413 202.280,194.088 203.017,194.010 203.497 L 193.869 204.369 192.019 204.370 C 186.636 204.375,181.657 205.652,168.290 210.460 C 156.605 214.662,151.173 216.059,145.227 216.391 C 141.742 216.586,140.923 216.908,139.111 218.795 C 137.461 220.513,137.295 220.845,136.751 223.505 C 136.541 224.528,135.896 226.347,135.317 227.549 C 134.737 228.750,134.143 230.334,133.995 231.068 L 133.727 232.403 132.458 232.403 C 131.558 232.403,130.836 232.588,129.976 233.040 C 127.961 234.098,124.505 235.082,111.664 238.252 C 101.061 240.870,89.798 243.764,88.956 244.087 C 88.650 244.204,88.278 243.236,87.765 240.982 C 87.427 239.502,86.979 238.476,86.051 237.060 C 85.860 236.768,85.324 235.218,84.860 233.617 C 83.944 230.455,83.298 228.673,81.912 225.485 C 75.844 211.530,75.310 194.489,80.463 179.248 C 82.368 173.614,83.167 170.566,83.362 168.192 C 83.503 166.460,83.789 164.749,84.260 162.814 C 84.867 160.322,88.073 158.438,97.087 155.277 C 110.662 150.517,112.872 148.076,110.713 140.228 C 110.427 139.192,110.194 137.727,110.194 136.973 C 110.194 129.609,102.769 126.386,91.141 128.703 C 88.738 129.182,86.175 129.644,85.447 129.729 C 84.718 129.815,83.302 130.203,82.302 130.591 C 80.209 131.404,80.106 131.352,80.101 129.472 C 80.082 123.357,76.675 114.873,72.327 110.115 C 68.421 105.841,61.082 102.938,57.505 104.251 C 56.915 104.468,56.013 104.750,55.500 104.877 C 53.485 105.379,51.070 107.278,50.612 108.720 C 50.498 109.082,50.316 109.210,50.058 109.111 C 44.688 107.051,38.638 109.464,33.463 115.732 C 32.546 116.842,31.796 117.840,31.796 117.949 C 31.796 118.058,31.071 118.225,30.185 118.320 C 19.057 119.512,14.108 127.393,17.365 138.732 C 17.494 139.179,17.352 139.270,16.097 139.546 C 10.129 140.857,7.127 146.220,9.278 151.727 C 10.973 156.066,13.422 159.064,23.631 169.296 C 33.442 179.129,34.543 180.373,35.085 182.239 C 36.291 186.385,36.259 185.311,36.291 222.573 C 36.335 273.287,36.787 279.029,41.075 283.266 C 44.979 287.125,50.639 289.788,56.759 290.645 C 58.415 290.877,61.659 291.654,64.890 292.593 C 73.142 294.989,76.492 295.394,81.068 294.549 C 87.898 293.288,91.244 293.056,103.619 292.990 C 116.869 292.919,120.118 292.554,123.818 290.722 L 125.914 289.684 125.882 291.990 C 125.845 294.653,126.274 295.774,127.821 297.048 C 129.206 298.190,130.085 298.268,143.568 298.438 C 150.510 298.525,156.217 298.621,156.251 298.652 C 156.285 298.682,156.031 299.845,155.687 301.235 C 152.077 315.820,149.461 340.982,151.199 344.389 C 153.620 349.134,160.267 347.706,160.830 342.321 C 160.958 341.095,160.895 340.708,160.419 339.793 C 159.607 338.235,159.638 336.404,160.502 334.860 C 160.973 334.020,161.165 333.332,161.165 332.487 C 161.165 324.670,164.516 306.248,168.338 293.051 C 172.938 277.169,182.685 253.416,190.286 239.563 C 198.255 225.042,199.365 222.845,201.115 218.139 C 202.320 214.895,203.013 212.364,203.656 208.859 C 203.900 207.524,204.371 205.667,204.702 204.733 C 205.032 203.799,205.510 201.784,205.764 200.257 C 206.186 197.714,206.274 197.465,206.814 197.299 C 207.138 197.200,211.663 196.397,216.869 195.515 C 236.892 192.122,247.778 189.258,251.973 186.278 C 254.618 184.399,255.793 184.204,257.173 185.415 C 258.620 186.686,259.535 186.969,261.645 186.800 C 265.685 186.476,267.571 188.343,272.276 197.330 C 282.124 216.141,293.462 260.362,296.235 290.777 C 296.849 297.512,296.770 299.263,295.813 300.153 C 291.553 304.114,285.296 307.864,281.917 308.480 C 272.661 310.168,236.465 311.981,225.667 311.298 L 222.816 311.117 222.809 307.925 C 222.806 306.169,222.988 297.197,223.214 287.985 C 223.606 272.012,223.605 271.196,223.198 270.338 C 221.354 266.459,216.293 266.186,214.146 269.851 L 213.484 270.980 213.087 286.279 C 212.868 294.693,212.701 304.918,212.716 309.000 L 212.743 316.422 213.480 317.617 C 215.278 320.527,220.362 321.588,232.558 321.598 L 237.083 321.602 237.183 331.493 C 237.240 337.121,237.188 341.675,237.061 342.060 C 236.683 343.213,237.088 345.263,237.942 346.523 C 241.176 351.290,249.051 347.542,246.510 342.444 C 245.666 340.750,245.656 339.104,246.480 337.480 L 247.085 336.286 247.086 328.845 L 247.087 321.403 249.090 321.263 C 250.191 321.187,254.150 320.957,257.888 320.753 C 267.392 320.234,276.897 319.483,279.551 319.041 L 280.340 318.910 280.339 321.288 C 280.336 328.693,280.858 336.258,281.455 337.487 C 282.191 339.000,282.215 340.641,281.526 342.244 C 278.784 348.616,287.383 353.427,290.610 347.326 L 291.314 345.995 291.164 341.019 C 291.081 338.283,290.908 333.149,290.781 329.612 C 290.653 326.074,290.498 321.629,290.437 319.733 L 290.325 316.287 292.098 315.315 C 300.140 310.900,307.073 304.217,307.080 300.871 C 307.132 277.030,295.764 225.919,284.591 199.757 C 278.085 184.524,273.762 179.254,265.772 176.815 L 262.976 175.961 259.864 169.716 C 258.152 166.281,256.421 162.949,256.016 162.311 L 255.280 161.150 256.474 159.762 C 266.151 148.515,273.565 128.348,274.502 110.727 C 274.741 106.222,274.583 105.431,273.148 103.933 L 272.102 102.841 273.036 101.724 C 281.218 91.938,284.151 79.858,279.854 73.642 C 279.130 72.594,278.101 70.545,277.288 68.531 C 274.844 62.476,273.471 60.884,269.778 59.824 C 268.979 59.595,268.216 59.327,268.083 59.228 C 266.899 58.356,264.218 58.055,262.227 58.571 L 260.999 58.890 261.561 58.061 C 262.314 56.952,262.475 55.920,262.295 53.374 C 260.982 34.885,242.979 15.066,224.150 11.382 C 220.761 10.719,216.394 10.546,215.329 11.033 M226.245 22.471 C 239.565 27.217,250.980 41.333,252.178 54.542 C 252.489 57.977,253.630 59.575,256.240 60.232 L 257.286 60.496 255.524 61.577 C 254.555 62.172,253.452 62.951,253.073 63.308 C 247.863 68.212,254.071 75.699,259.576 71.151 C 260.177 70.654,261.367 69.874,262.221 69.418 L 263.774 68.589 265.252 69.061 L 266.731 69.533 268.200 73.145 C 269.008 75.132,270.174 77.511,270.791 78.431 C 271.899 80.082,271.912 80.125,271.769 81.618 C 271.191 87.633,264.028 98.490,259.199 100.670 C 252.741 103.585,256.514 112.479,263.140 109.961 L 264.392 109.485 264.232 112.118 C 263.804 119.167,261.019 130.391,257.934 137.500 C 250.809 153.919,241.935 162.509,230.948 163.623 C 227.656 163.957,226.663 164.415,225.607 166.090 L 224.879 167.244 219.660 167.105 C 193.003 166.397,180.885 162.091,170.099 149.495 C 169.346 148.617,167.661 147.088,166.353 146.097 L 163.974 144.296 163.419 142.476 C 160.886 134.177,159.701 117.508,160.874 106.675 C 166.151 57.918,189.289 23.965,218.447 22.193 C 219.982 22.100,221.566 21.893,221.966 21.733 C 222.808 21.396,223.621 21.536,226.245 22.471 M210.316 70.739 C 208.956 71.240,207.594 72.816,205.899 75.850 C 204.508 78.338,205.025 82.455,206.956 84.262 C 213.511 90.399,223.716 79.044,217.523 72.504 C 215.975 70.868,212.364 69.984,210.316 70.739 M184.132 71.473 C 182.853 71.929,181.641 73.163,181.160 74.499 C 180.941 75.108,180.503 76.281,180.186 77.105 C 176.950 85.538,189.159 89.566,193.092 81.363 C 195.848 75.615,190.152 69.327,184.132 71.473 M61.587 114.699 C 67.891 117.288,71.996 129.600,69.129 137.316 C 68.414 139.240,66.262 141.014,66.262 139.679 C 66.262 139.131,64.508 135.738,62.374 132.160 C 57.271 123.600,56.637 120.994,58.490 116.192 C 59.404 113.824,59.429 113.812,61.587 114.699 M175.607 114.538 C 170.992 116.675,171.882 123.088,176.942 124.148 C 179.255 124.633,187.180 127.342,192.353 129.416 C 200.686 132.757,205.346 132.285,214.170 127.205 C 217.515 125.279,218.900 124.609,219.909 124.425 C 223.580 123.760,224.825 118.200,221.861 115.707 C 219.428 113.659,216.643 114.210,209.572 118.140 C 202.864 121.867,201.354 122.099,196.481 120.145 C 184.098 115.182,177.844 113.502,175.607 114.538 M47.112 118.836 C 47.193 118.881,47.322 119.985,47.400 121.291 C 47.673 125.899,49.077 129.572,53.363 136.893 C 56.645 142.498,56.394 141.990,55.881 141.990 C 53.543 141.990,48.960 138.378,43.411 132.160 C 41.862 130.425,40.298 128.732,39.935 128.398 C 38.810 127.362,38.738 127.031,39.392 125.897 C 39.715 125.337,40.059 124.551,40.155 124.151 C 40.807 121.450,45.432 117.917,47.112 118.836 M29.353 130.475 C 29.960 132.199,30.842 133.502,32.846 135.636 C 33.809 136.661,35.575 138.592,36.770 139.927 C 39.653 143.145,42.495 145.898,44.357 147.273 C 46.043 148.520,46.192 149.007,45.602 151.349 C 45.286 152.604,44.568 152.768,42.663 152.020 C 33.287 148.337,22.819 132.603,27.746 129.600 C 28.753 128.986,28.847 129.037,29.353 130.475 M101.766 134.481 C 106.913 135.910,106.058 144.363,100.761 144.412 C 98.501 144.433,85.735 152.060,77.549 158.281 C 74.260 160.780,74.101 160.952,73.954 162.162 C 73.094 169.229,73.058 169.383,70.237 177.834 C 64.836 194.019,65.828 213.552,72.900 230.287 C 73.650 232.060,74.437 234.135,74.649 234.899 C 75.526 238.047,76.768 241.538,77.281 242.294 C 77.581 242.737,78.007 243.814,78.226 244.687 C 78.445 245.559,78.718 246.526,78.832 246.834 C 79.026 247.357,78.878 247.476,76.669 248.582 C 72.645 250.597,70.648 252.856,70.636 255.408 C 70.615 260.111,75.893 262.169,79.390 258.822 C 81.718 256.594,90.722 253.846,116.262 247.569 C 122.336 246.076,128.558 244.433,130.088 243.919 C 131.617 243.404,132.883 243.005,132.901 243.033 C 133.212 243.525,131.851 252.233,129.726 263.345 C 128.974 267.280,128.056 272.303,127.686 274.507 L 127.015 278.515 125.213 279.031 C 124.222 279.314,122.207 280.158,120.735 280.905 C 117.429 282.582,116.026 282.762,106.189 282.775 C 93.451 282.792,86.311 283.214,81.068 284.258 C 76.438 285.181,75.417 285.054,66.246 282.426 C 63.026 281.504,59.639 280.699,58.029 280.474 C 54.917 280.040,52.792 279.285,50.485 277.793 C 47.917 276.132,48.024 276.373,47.469 270.995 C 46.571 262.304,46.493 258.515,46.475 222.937 C 46.462 197.956,46.377 187.466,46.178 186.165 C 46.025 185.164,45.827 183.853,45.738 183.252 C 44.755 176.618,43.583 174.931,31.671 163.001 C 23.126 154.444,19.014 149.837,19.494 149.358 C 19.565 149.287,20.478 149.171,21.522 149.101 L 23.422 148.973 23.987 149.744 C 25.772 152.182,30.780 156.726,34.095 158.915 C 43.798 165.322,53.078 163.133,55.428 153.883 C 55.726 152.711,55.837 152.554,56.342 152.595 C 62.479 153.089,63.329 152.951,64.911 151.199 C 65.662 150.368,65.912 150.243,66.817 150.243 C 71.660 150.243,77.150 145.847,78.679 140.745 C 78.834 140.229,78.987 139.806,79.018 139.806 C 79.050 139.806,79.552 140.078,80.133 140.410 C 82.148 141.562,84.105 141.190,88.592 138.804 C 95.732 135.007,99.366 133.814,101.766 134.481 M249.537 171.647 C 250.475 173.520,251.209 175.067,251.167 175.087 C 249.793 175.722,247.861 176.792,246.639 177.595 C 244.462 179.025,237.045 181.366,229.976 182.853 C 227.616 183.350,210.329 186.408,209.881 186.408 C 209.813 186.408,209.570 185.561,209.341 184.527 C 208.800 182.078,207.953 179.838,206.899 178.063 C 205.852 176.300,205.423 176.443,210.558 176.846 C 212.961 177.034,219.023 177.215,224.029 177.247 L 233.131 177.306 234.141 176.727 C 235.284 176.073,236.062 175.129,236.497 173.871 C 236.776 173.067,236.929 172.969,238.877 172.342 C 241.303 171.562,244.509 170.042,246.238 168.852 C 247.751 167.811,247.515 167.611,249.537 171.647 M191.505 214.745 C 191.504 215.740,188.929 220.930,183.585 230.704 C 177.731 241.412,171.014 255.660,167.280 265.291 C 166.737 266.693,165.675 269.424,164.921 271.359 C 163.864 274.072,159.452 287.040,159.093 288.490 C 159.049 288.668,158.534 288.691,157.487 288.563 C 156.640 288.459,152.670 288.347,148.665 288.313 C 144.660 288.279,140.203 288.211,138.761 288.163 L 136.139 288.075 136.294 286.331 C 136.691 281.860,137.830 274.883,140.045 263.350 C 142.146 252.410,142.867 247.472,143.094 242.476 C 143.390 235.942,143.804 233.308,144.859 231.246 C 145.376 230.234,145.938 228.755,146.106 227.960 L 146.413 226.514 148.389 226.351 C 153.695 225.912,160.774 223.979,171.939 219.919 C 179.505 217.168,184.899 215.495,187.621 215.056 C 188.623 214.894,189.606 214.730,189.806 214.691 C 190.571 214.541,191.505 214.571,191.505 214.745 " stroke="none" fill="#040404" fill-rule="evenodd"></path><path id="path3" d="" stroke="none" fill="#5c3a26" fill-rule="evenodd"></path><path id="path4" d="M99.942 134.395 C 100.244 134.453,100.681 134.451,100.913 134.390 C 101.145 134.329,100.898 134.282,100.364 134.285 C 99.830 134.287,99.640 134.337,99.942 134.395 M159.765 337.379 C 159.765 337.846,159.815 338.037,159.876 337.803 C 159.937 337.570,159.937 337.188,159.876 336.954 C 159.815 336.720,159.765 336.911,159.765 337.379 " stroke="none" fill="#342414" fill-rule="evenodd"></path></g></svg>