<svg id="svg" version="1.1" xmlns="http://www.w3.org/2000/svg" xmlns:xlink="http://www.w3.org/1999/xlink" width="400" height="410.4252400548697" viewBox="0, 0, 400,410.4252400548697"><g id="svgg"><path id="path0" d="M222.634 114.038 C 222.332 114.104,220.789 114.516,219.204 114.954 C 217.252 115.493,215.794 115.731,214.678 115.694 C 212.981 115.636,210.278 116.634,208.640 117.922 C 203.969 121.597,199.858 126.922,196.003 134.294 C 193.886 138.343,192.423 140.362,190.132 142.399 C 189.077 143.336,188.272 144.197,188.343 144.312 C 189.035 145.431,201.519 147.051,209.454 147.051 L 213.068 147.051 215.015 145.297 C 216.086 144.332,217.511 143.166,218.181 142.704 C 224.918 138.070,231.346 147.190,224.758 152.036 C 222.039 154.036,206.814 169.902,203.827 173.848 C 202.553 175.532,202.806 176.355,206.732 183.265 C 208.147 185.754,209.581 188.532,209.920 189.438 C 210.644 191.372,210.655 191.382,212.370 191.610 C 218.128 192.374,223.557 196.110,225.926 200.939 L 226.475 202.058 230.041 202.277 C 236.910 202.699,243.342 202.396,243.982 201.621 C 245.593 199.670,247.429 194.245,249.782 184.479 C 252.632 172.647,255.102 166.153,257.923 163.076 C 258.443 162.509,258.439 162.483,257.614 160.718 C 255.080 155.303,255.655 150.493,259.045 148.749 C 262.812 146.810,266.932 149.159,267.464 153.547 C 267.869 156.889,270.741 157.954,275.201 156.417 C 279.999 154.763,280.700 153.281,278.237 149.994 C 276.483 147.653,276.094 146.642,275.045 141.701 L 274.346 138.409 271.938 136.077 C 262.623 127.054,258.727 123.979,252.401 120.658 C 243.278 115.869,228.891 112.670,222.634 114.038 " stroke="none" fill="#8c2c14" fill-rule="evenodd"></path><path id="path1" d="M251.502 26.769 C 230.848 29.593,218.839 43.793,218.110 66.255 C 217.701 78.839,218.229 80.044,226.028 84.334 C 229.087 86.016,229.314 85.886,227.419 83.539 C 220.303 74.725,218.682 66.111,222.901 59.531 C 225.482 55.507,228.513 53.938,236.214 52.641 C 243.007 51.497,243.692 50.824,244.154 44.844 C 244.558 39.604,248.216 37.254,254.089 38.460 C 258.126 39.290,262.521 40.537,264.472 41.407 C 274.797 46.011,284.281 46.186,292.867 41.928 C 296.048 40.350,296.156 40.170,294.054 39.943 C 286.877 39.166,284.283 38.562,279.835 36.632 C 278.553 36.075,275.466 34.814,272.977 33.829 C 267.609 31.705,264.167 30.067,261.728 28.475 C 260.162 27.453,259.745 27.307,258.299 27.279 C 257.361 27.261,256.275 27.052,255.775 26.793 C 255.292 26.542,254.736 26.352,254.540 26.370 C 254.344 26.388,252.977 26.567,251.502 26.769 M226.067 215.161 C 218.558 236.040,196.306 241.296,189.709 223.750 L 189.087 222.094 188.621 223.187 C 184.152 233.666,182.345 244.395,183.834 251.610 C 186.125 262.714,190.809 266.940,215.661 280.332 C 243.606 295.389,247.527 299.977,260.499 332.785 C 266.229 347.277,271.846 356.865,274.662 356.958 C 278.753 357.093,290.354 355.828,291.007 355.175 C 291.185 354.997,290.143 349.683,289.118 345.542 C 283.632 323.383,271.777 292.170,263.809 278.903 C 260.581 273.529,258.783 271.673,250.112 264.763 C 233.569 251.582,232.461 248.321,237.316 227.114 C 238.067 223.834,238.817 219.941,238.984 218.462 C 239.150 216.984,239.437 215.343,239.621 214.815 L 239.956 213.855 233.983 213.819 C 230.698 213.800,227.712 213.709,227.347 213.617 C 226.738 213.464,226.631 213.593,226.067 215.161 M187.789 277.846 C 187.680 278.110,187.534 282.956,187.464 288.615 C 187.312 300.973,187.151 301.713,184.278 303.211 C 181.557 304.630,176.410 302.873,176.406 300.523 C 176.405 300.017,172.326 300.126,169.092 300.719 C 162.817 301.870,158.106 301.596,148.834 299.539 C 142.772 298.194,139.677 297.670,137.783 297.669 C 136.986 297.669,135.890 297.483,135.349 297.257 C 133.796 296.608,133.580 296.715,131.613 299.124 C 129.344 301.902,124.554 309.583,124.554 310.444 C 124.554 310.829,133.361 313.737,141.152 315.925 C 148.749 318.058,162.540 322.023,169.273 324.009 C 183.770 328.286,182.757 328.496,189.178 319.890 C 193.029 314.729,198.290 308.223,201.831 304.244 C 207.434 297.948,209.602 294.684,209.602 292.550 C 209.602 292.065,209.716 291.368,209.855 291.002 C 210.095 290.373,209.975 290.264,207.729 289.064 C 201.785 285.888,200.688 285.276,197.096 283.129 C 194.997 281.874,192.137 280.064,190.741 279.107 C 187.858 277.129,188.051 277.212,187.789 277.846 " stroke="none" fill="#642c1c" fill-rule="evenodd"></path><path id="path2" d="M254.617 51.743 C 252.828 58.848,247.971 62.355,237.586 64.041 C 236.152 64.274,234.515 64.595,233.948 64.756 C 230.372 65.768,231.941 71.352,237.607 77.778 C 240.942 81.561,241.421 84.751,239.334 89.300 C 238.278 91.601,238.210 91.895,238.336 93.608 C 238.515 96.050,237.784 97.655,235.969 98.804 C 234.949 99.450,234.668 99.801,234.515 100.625 C 234.055 103.100,233.920 102.969,237.485 103.519 C 241.014 104.064,245.738 105.353,249.520 106.802 L 251.989 107.749 252.174 106.069 C 252.276 105.145,252.441 102.785,252.542 100.823 C 252.851 94.806,254.343 92.803,258.412 92.934 C 269.483 93.293,273.350 91.832,276.915 85.943 C 280.639 79.791,281.963 72.258,281.778 58.272 L 281.756 56.599 278.258 56.431 C 271.997 56.132,264.544 54.302,260.011 51.951 C 259.273 51.568,255.705 50.501,255.108 50.485 C 255.013 50.482,254.792 51.049,254.617 51.743 M275.685 66.137 C 276.810 68.151,274.085 70.316,271.897 69.146 C 271.267 68.808,270.981 67.407,271.368 66.556 C 272.021 65.125,274.960 64.839,275.685 66.137 M262.826 66.941 C 264.343 68.458,262.799 71.056,260.380 71.056 C 259.304 71.056,258.933 70.353,259.039 68.517 C 259.157 66.490,261.429 65.544,262.826 66.941 M258.061 81.070 C 259.186 82.373,259.497 82.579,260.342 82.579 C 260.880 82.579,261.752 82.715,262.279 82.881 C 262.806 83.047,264.781 83.263,266.667 83.361 L 270.096 83.539 270.180 84.267 C 270.516 87.164,257.552 86.273,255.697 83.272 C 253.853 80.288,255.811 78.464,258.061 81.070 M324.016 132.167 C 322.481 133.755,321.169 135.597,319.767 138.134 L 319.009 139.506 320.256 141.612 C 323.288 146.733,322.624 151.228,318.640 152.543 C 317.854 152.802,317.418 153.333,315.866 155.918 C 311.017 163.994,303.823 171.471,297.997 174.493 C 293.934 176.599,288.973 174.218,284.447 167.988 C 283.535 166.733,282.759 165.706,282.722 165.706 C 282.685 165.706,281.866 166.059,280.902 166.490 C 277.794 167.880,275.653 168.313,271.879 168.313 L 268.450 168.313 267.378 169.641 C 266.703 170.477,266.416 171.038,266.603 171.154 C 266.767 171.256,268.389 172.131,270.206 173.099 C 272.024 174.068,274.903 175.897,276.605 177.164 C 290.550 187.548,295.310 186.719,311.263 171.121 C 318.780 163.773,319.197 163.486,325.926 161.039 C 329.718 159.659,331.356 158.760,331.694 157.869 C 332.008 157.043,332.505 151.097,332.369 149.794 C 332.313 149.266,332.198 147.830,332.111 146.602 C 331.703 140.804,329.362 133.856,327.016 131.481 C 325.860 130.311,325.796 130.326,324.016 132.167 M190.815 157.815 C 190.078 159.062,187.556 161.721,183.959 165.042 C 182.268 166.604,180.540 168.377,180.120 168.984 L 179.356 170.086 180.078 172.402 C 181.392 176.616,184.908 182.957,192.182 194.232 C 194.273 197.472,196.538 201.166,197.216 202.440 L 198.449 204.758 198.656 208.757 C 199.494 224.888,204.566 227.550,212.703 216.128 C 218.576 207.884,216.122 202.469,206.513 202.469 C 202.627 202.469,200.476 200.305,199.863 195.779 C 199.680 194.433,198.322 191.606,195.234 186.145 C 193.153 182.465,192.055 179.543,191.576 176.406 C 190.841 171.602,191.663 170.045,199.545 161.317 C 202.429 158.123,202.430 158.110,199.666 158.052 C 198.376 158.025,192.559 157.289,191.760 157.053 C 191.498 156.975,191.141 157.263,190.815 157.815 " stroke="none" fill="#cc8c64" fill-rule="evenodd"></path><path id="path3" d="M117.010 290.416 C 110.181 291.414,103.463 293.425,102.082 294.885 C 100.050 297.036,98.183 302.209,96.179 311.248 C 95.510 314.266,94.707 317.464,94.395 318.356 C 93.575 320.697,93.620 320.872,95.267 321.719 C 100.786 324.557,106.269 319.397,115.925 302.282 C 119.140 296.584,120.456 294.602,123.132 291.427 L 124.346 289.986 121.913 290.021 C 120.574 290.039,118.368 290.217,117.010 290.416 M288.889 367.237 C 285.374 367.815,281.699 368.232,279.089 368.348 L 274.914 368.534 274.098 371.167 C 272.776 375.436,271.957 378.386,271.755 379.603 L 271.566 380.743 273.513 381.186 C 281.290 382.954,299.861 385.348,311.193 386.043 L 316.625 386.375 318.282 384.752 C 320.862 382.222,323.457 378.330,323.457 376.990 C 323.457 375.786,320.416 374.239,315.364 372.873 C 311.972 371.955,303.168 369.807,301.728 369.545 C 299.787 369.192,298.181 368.382,297.196 367.261 C 296.110 366.024,296.257 366.024,288.889 367.237 " stroke="none" fill="#645c4c" fill-rule="evenodd"></path><path id="path4" d="M252.401 15.118 C 228.800 17.180,210.945 33.631,207.238 56.730 C 206.567 60.911,206.390 75.094,206.968 78.409 C 208.174 85.333,212.090 89.852,221.060 94.672 C 222.369 95.376,223.265 96.023,223.194 96.215 C 223.127 96.397,223.052 97.832,223.026 99.404 L 222.981 102.262 219.652 102.968 C 217.822 103.357,215.460 103.756,214.403 103.855 C 203.597 104.873,194.862 112.501,185.959 128.692 C 183.946 132.355,183.489 132.986,181.783 134.469 C 174.841 140.503,173.716 146.841,178.722 151.710 L 179.986 152.940 175.494 157.334 C 164.404 168.182,165.301 174.028,181.972 199.569 L 184.825 203.940 183.584 204.782 C 182.075 205.806,181.407 207.039,181.026 209.510 C 180.858 210.596,179.601 214.451,178.040 218.669 C 170.135 240.027,169.719 253.282,176.580 265.181 L 177.832 267.353 177.543 269.136 C 177.385 270.117,177.070 272.030,176.845 273.388 C 176.366 276.272,175.857 282.901,175.857 286.265 L 175.857 288.615 173.827 288.615 C 172.710 288.615,170.374 288.858,168.634 289.155 C 161.892 290.308,159.617 290.199,151.244 288.323 C 145.531 287.043,142.073 286.423,140.604 286.416 C 139.243 286.410,139.153 286.345,138.012 284.543 C 133.664 277.671,120.076 276.590,103.167 281.770 C 92.598 285.008,88.829 290.640,84.910 309.053 C 84.524 310.864,83.854 313.519,83.419 314.952 C 80.987 322.984,81.520 325.626,86.355 329.515 C 96.041 337.308,106.897 334.857,116.538 322.702 C 117.525 321.457,118.364 320.439,118.401 320.439 C 118.439 320.439,119.438 320.852,120.620 321.357 C 123.352 322.523,131.896 325.271,138.816 327.208 C 141.761 328.032,146.084 329.241,148.422 329.894 C 150.761 330.547,155.823 332.012,159.671 333.148 C 178.720 338.775,181.166 339.244,185.557 338.111 C 189.709 337.041,192.402 334.718,197.680 327.653 C 201.568 322.450,207.029 315.651,209.795 312.573 C 215.830 305.857,218.623 301.928,219.938 298.304 C 220.310 297.280,220.654 296.402,220.702 296.353 C 220.864 296.191,226.451 299.610,228.121 300.894 C 236.686 307.476,240.315 313.456,249.387 335.940 C 255.183 350.306,259.095 357.787,263.248 362.449 C 264.325 363.658,264.291 363.980,262.408 370.233 C 257.676 385.946,259.578 390.154,272.565 392.699 C 292.600 396.625,317.379 398.739,321.464 396.871 C 325.900 394.841,333.152 385.564,334.557 380.121 C 337.039 370.507,330.623 364.506,313.717 360.628 C 311.303 360.075,308.340 359.332,307.133 358.977 C 305.926 358.623,304.475 358.258,303.909 358.166 C 302.936 358.009,302.881 357.945,302.879 356.983 C 302.863 345.836,288.533 302.161,277.926 280.933 C 271.814 268.702,268.734 264.904,258.025 256.391 C 251.664 251.335,249.270 249.118,247.500 246.642 L 246.228 244.862 246.258 242.527 C 246.290 239.949,246.735 237.316,248.182 231.139 C 250.901 219.522,251.239 216.311,249.990 213.954 L 249.170 212.408 250.319 211.598 C 254.232 208.840,257.008 202.719,260.369 189.438 C 261.475 185.070,262.366 182.059,262.542 182.101 C 263.518 182.333,267.963 185.032,270.435 186.892 C 278.303 192.816,283.382 194.983,290.043 195.257 C 300.043 195.669,305.832 192.484,319.618 178.987 C 324.956 173.761,325.449 173.408,329.269 172.061 C 340.826 167.988,343.341 164.531,343.672 152.263 C 344.447 123.603,326.750 109.028,313.164 127.138 C 308.183 133.777,306.558 138.905,308.114 143.066 L 308.684 144.589 307.988 145.417 C 307.605 145.872,307.214 146.703,307.118 147.265 C 306.686 149.805,301.657 156.845,297.491 160.743 L 295.078 163.000 294.317 162.090 C 293.898 161.589,293.234 160.501,292.841 159.671 C 292.449 158.841,291.833 157.726,291.474 157.194 C 290.888 156.328,290.851 156.112,291.122 155.137 C 291.942 152.181,290.816 147.581,288.549 144.624 C 287.906 143.785,287.297 142.967,287.195 142.805 C 287.094 142.644,286.618 140.786,286.138 138.677 C 285.033 133.824,284.346 132.382,281.923 129.821 C 277.107 124.733,268.889 117.491,264.718 114.658 L 263.060 113.533 263.254 111.156 C 263.361 109.849,263.524 107.853,263.617 106.722 L 263.786 104.664 264.883 104.598 C 283.504 103.480,292.744 89.909,293.200 63.010 L 293.349 54.277 294.068 53.979 C 315.352 45.167,318.479 32.128,300.000 29.244 C 298.491 29.008,295.063 28.509,292.381 28.133 C 288.254 27.556,287.159 27.298,285.248 26.456 C 284.006 25.909,280.521 24.477,277.503 23.273 C 271.441 20.855,268.775 19.525,266.692 17.879 C 265.318 16.793,263.707 16.119,261.591 15.745 C 260.988 15.639,260.097 15.386,259.611 15.183 C 258.651 14.783,256.466 14.763,252.401 15.118 M255.775 26.793 C 256.275 27.052,257.361 27.261,258.299 27.279 C 259.745 27.307,260.162 27.453,261.728 28.475 C 264.167 30.067,267.609 31.705,272.977 33.829 C 275.466 34.814,278.553 36.075,279.835 36.632 C 284.283 38.562,286.877 39.166,294.054 39.943 C 296.156 40.170,296.048 40.350,292.867 41.928 C 284.281 46.186,274.797 46.011,264.472 41.407 C 262.521 40.537,258.126 39.290,254.089 38.460 C 248.216 37.254,244.558 39.604,244.154 44.844 C 243.692 50.824,243.007 51.497,236.214 52.641 C 228.513 53.938,225.482 55.507,222.901 59.531 C 218.682 66.111,220.303 74.725,227.419 83.539 C 229.314 85.886,229.087 86.016,226.028 84.334 C 218.229 80.044,217.701 78.839,218.110 66.255 C 218.875 42.704,231.921 28.421,254.540 26.370 C 254.736 26.352,255.292 26.542,255.775 26.793 M162.686 49.730 C 162.006 50.095,160.957 50.485,160.354 50.597 C 159.276 50.797,153.256 52.803,148.148 54.666 C 140.048 57.619,123.860 58.874,90.261 59.155 L 72.016 59.308 70.562 59.997 C 66.590 61.877,66.336 67.428,70.111 69.843 C 72.454 71.342,75.717 71.708,89.438 72.009 C 98.129 72.200,101.189 72.389,123.045 74.091 C 146.909 75.948,150.199 76.156,160.273 76.439 L 166.774 76.622 168.312 75.870 C 171.053 74.528,172.260 71.288,171.074 68.450 C 170.736 67.642,170.659 66.855,170.765 65.305 C 171.534 54.009,171.214 51.684,168.659 49.993 C 167.043 48.923,164.403 48.807,162.686 49.730 M257.202 50.990 C 258.258 51.265,259.522 51.697,260.011 51.951 C 264.544 54.302,271.997 56.132,278.258 56.431 L 281.756 56.599 281.778 58.272 C 281.963 72.258,280.639 79.791,276.915 85.943 C 273.350 91.832,269.483 93.293,258.412 92.934 C 254.343 92.803,252.851 94.806,252.542 100.823 C 252.441 102.785,252.276 105.145,252.174 106.069 L 251.989 107.749 249.520 106.802 C 245.738 105.353,241.014 104.064,237.485 103.519 C 233.920 102.969,234.055 103.100,234.515 100.625 C 234.668 99.801,234.949 99.450,235.969 98.804 C 237.784 97.655,238.515 96.050,238.336 93.608 C 238.210 91.895,238.278 91.601,239.334 89.300 C 241.421 84.751,240.942 81.561,237.607 77.778 C 231.941 71.352,230.372 65.768,233.948 64.756 C 234.515 64.595,236.152 64.274,237.586 64.041 C 247.971 62.355,252.828 58.848,254.617 51.743 C 254.792 51.049,255.013 50.482,255.108 50.485 C 255.203 50.487,256.145 50.715,257.202 50.990 M272.254 65.609 C 271.032 66.214,270.797 68.556,271.897 69.146 C 274.085 70.316,276.810 68.151,275.685 66.137 C 275.244 65.347,273.365 65.058,272.254 65.609 M259.808 66.746 C 259.030 67.138,258.690 69.444,259.255 70.499 C 259.800 71.518,262.410 70.974,263.092 69.700 C 264.262 67.514,262.116 65.583,259.808 66.746 M255.473 79.890 C 254.960 80.404,255.084 82.279,255.697 83.272 C 256.800 85.057,259.692 85.847,265.165 85.861 C 269.510 85.872,270.336 85.610,270.180 84.267 L 270.096 83.539 266.667 83.361 C 264.781 83.263,262.806 83.047,262.279 82.881 C 261.752 82.715,260.880 82.579,260.342 82.579 C 259.497 82.579,259.186 82.373,258.061 81.070 C 256.764 79.567,256.099 79.264,255.473 79.890 M110.837 92.097 C 102.914 92.300,85.483 93.794,61.866 96.293 C 48.946 97.660,41.615 98.178,30.906 98.481 C 22.230 98.726,22.157 98.733,20.672 99.459 C 16.704 101.401,16.391 106.991,20.121 109.301 L 21.407 110.098 37.384 110.163 C 72.963 110.307,98.486 112.367,110.974 116.103 C 112.483 116.554,114.138 117.047,114.652 117.197 C 117.019 117.890,120.403 116.189,122.037 113.486 C 123.614 110.877,123.823 109.569,123.847 102.175 L 123.868 95.571 123.132 94.458 C 122.653 93.733,121.893 93.095,120.952 92.626 C 119.395 91.850,119.728 91.868,110.837 92.097 M230.178 114.140 C 238.465 114.886,245.126 116.839,252.401 120.658 C 258.727 123.979,262.623 127.054,271.938 136.077 L 274.346 138.409 275.045 141.701 C 276.094 146.642,276.483 147.653,278.237 149.994 C 280.700 153.281,279.999 154.763,275.201 156.417 C 270.741 157.954,267.869 156.889,267.464 153.547 C 266.932 149.159,262.812 146.810,259.045 148.749 C 255.655 150.493,255.080 155.303,257.614 160.718 C 258.439 162.483,258.443 162.509,257.923 163.076 C 255.102 166.153,252.632 172.647,249.782 184.479 C 247.429 194.245,245.593 199.670,243.982 201.621 C 243.342 202.396,236.910 202.699,230.041 202.277 L 226.475 202.058 225.926 200.939 C 223.557 196.110,218.128 192.374,212.370 191.610 C 210.655 191.382,210.644 191.372,209.920 189.438 C 209.581 188.532,208.147 185.754,206.732 183.265 C 202.806 176.355,202.553 175.532,203.827 173.848 C 206.814 169.902,222.039 154.036,224.758 152.036 C 231.346 147.190,224.918 138.070,218.181 142.704 C 217.511 143.166,216.086 144.332,215.015 145.297 L 213.068 147.051 209.454 147.051 C 201.519 147.051,189.035 145.431,188.343 144.312 C 188.272 144.197,189.077 143.336,190.132 142.399 C 192.423 140.362,193.886 138.343,196.003 134.294 C 199.858 126.922,203.969 121.597,208.640 117.922 C 210.278 116.634,212.981 115.636,214.678 115.694 C 215.794 115.731,217.252 115.493,219.204 114.954 C 220.789 114.516,222.332 114.104,222.634 114.038 C 223.671 113.811,227.028 113.857,230.178 114.140 M327.016 131.481 C 329.362 133.856,331.703 140.804,332.111 146.602 C 332.198 147.830,332.313 149.266,332.369 149.794 C 332.505 151.097,332.008 157.043,331.694 157.869 C 331.356 158.760,329.718 159.659,325.926 161.039 C 319.197 163.486,318.780 163.773,311.263 171.121 C 295.310 186.719,290.550 187.548,276.605 177.164 C 274.903 175.897,272.024 174.068,270.206 173.099 C 268.389 172.131,266.767 171.256,266.603 171.154 C 266.416 171.038,266.703 170.477,267.378 169.641 L 268.450 168.313 271.879 168.313 C 275.653 168.313,277.794 167.880,280.902 166.490 C 281.866 166.059,282.685 165.706,282.722 165.706 C 282.759 165.706,283.535 166.733,284.447 167.988 C 288.973 174.218,293.934 176.599,297.997 174.493 C 303.823 171.471,311.017 163.994,315.866 155.918 C 317.418 153.333,317.854 152.802,318.640 152.543 C 322.624 151.228,323.288 146.733,320.256 141.612 L 319.009 139.506 319.767 138.134 C 321.630 134.764,324.989 130.590,325.838 130.590 C 326.002 130.590,326.532 130.991,327.016 131.481 M146.433 143.324 C 145.716 143.516,144.904 143.878,144.628 144.128 C 144.281 144.442,143.627 144.582,142.502 144.583 C 140.251 144.586,133.049 145.466,123.362 146.921 C 106.429 149.465,103.991 149.608,77.092 149.635 C 52.003 149.659,53.805 149.528,51.910 151.466 C 49.360 154.075,50.226 158.675,53.583 160.348 C 54.843 160.975,55.297 161.043,58.284 161.044 C 60.103 161.045,62.023 161.157,62.551 161.294 C 63.080 161.430,66.351 161.619,69.822 161.714 C 76.338 161.891,82.583 162.226,88.066 162.691 C 89.801 162.839,99.122 163.633,108.779 164.456 C 127.956 166.091,132.789 166.415,142.169 166.694 L 148.399 166.880 149.933 166.129 C 151.793 165.219,152.728 163.933,153.073 161.808 C 153.209 160.974,153.477 159.750,153.668 159.089 C 154.252 157.073,154.165 148.850,153.544 147.325 C 152.186 143.994,149.521 142.494,146.433 143.324 M195.277 157.601 C 196.980 157.834,198.955 158.037,199.666 158.052 C 202.430 158.110,202.429 158.123,199.545 161.317 C 191.663 170.045,190.841 171.602,191.576 176.406 C 192.055 179.543,193.153 182.465,195.234 186.145 C 198.322 191.606,199.680 194.433,199.863 195.779 C 200.476 200.305,202.627 202.469,206.513 202.469 C 216.122 202.469,218.576 207.884,212.703 216.128 C 204.566 227.550,199.494 224.888,198.656 208.757 L 198.449 204.758 197.216 202.440 C 196.538 201.166,194.273 197.472,192.182 194.232 C 184.908 182.957,181.392 176.616,180.078 172.402 L 179.356 170.086 180.120 168.984 C 180.540 168.377,182.268 166.604,183.959 165.042 C 187.556 161.721,190.078 159.062,190.815 157.815 C 191.141 157.263,191.498 156.975,191.760 157.053 C 191.992 157.121,193.574 157.368,195.277 157.601 M233.983 213.819 L 239.956 213.855 239.621 214.815 C 239.437 215.343,239.150 216.984,238.984 218.462 C 238.817 219.941,238.067 223.834,237.316 227.114 C 232.461 248.321,233.569 251.582,250.112 264.763 C 258.783 271.673,260.581 273.529,263.809 278.903 C 271.777 292.170,283.632 323.383,289.118 345.542 C 290.143 349.683,291.185 354.997,291.007 355.175 C 290.354 355.828,278.753 357.093,274.662 356.958 C 271.846 356.865,266.229 347.277,260.499 332.785 C 247.527 299.977,243.606 295.389,215.661 280.332 C 190.809 266.940,186.125 262.714,183.834 251.610 C 182.345 244.395,184.152 233.666,188.621 223.187 L 189.087 222.094 189.709 223.750 C 196.306 241.296,218.558 236.040,226.067 215.161 C 226.631 213.593,226.738 213.464,227.347 213.617 C 227.712 213.709,230.698 213.800,233.983 213.819 M190.741 279.107 C 192.137 280.064,194.997 281.874,197.096 283.129 C 200.688 285.276,201.785 285.888,207.729 289.064 C 209.975 290.264,210.095 290.373,209.855 291.002 C 209.716 291.368,209.602 292.065,209.602 292.550 C 209.602 294.684,207.434 297.948,201.831 304.244 C 198.290 308.223,193.029 314.729,189.178 319.890 C 182.757 328.496,183.770 328.286,169.273 324.009 C 162.540 322.023,148.749 318.058,141.152 315.925 C 133.361 313.737,124.554 310.829,124.554 310.444 C 124.554 309.583,129.344 301.902,131.613 299.124 C 133.580 296.715,133.796 296.608,135.349 297.257 C 135.890 297.483,136.986 297.669,137.783 297.669 C 139.677 297.670,142.772 298.194,148.834 299.539 C 158.106 301.596,162.817 301.870,169.092 300.719 C 172.326 300.126,176.405 300.017,176.406 300.523 C 176.407 301.092,177.890 302.653,178.960 303.211 C 182.080 304.839,186.054 303.194,187.051 299.863 C 187.217 299.305,187.391 294.588,187.464 288.615 C 187.576 279.499,187.696 277.366,188.095 277.366 C 188.155 277.366,189.345 278.149,190.741 279.107 M123.132 291.427 C 120.456 294.602,119.140 296.584,115.925 302.282 C 106.269 319.397,100.786 324.557,95.267 321.719 C 93.620 320.872,93.575 320.697,94.395 318.356 C 94.707 317.464,95.510 314.266,96.179 311.248 C 98.183 302.209,100.050 297.036,102.082 294.885 C 103.974 292.884,115.265 290.114,121.913 290.021 L 124.346 289.986 123.132 291.427 M297.196 367.261 C 298.181 368.382,299.787 369.192,301.728 369.545 C 303.168 369.807,311.972 371.955,315.364 372.873 C 320.416 374.239,323.457 375.786,323.457 376.990 C 323.457 378.330,320.862 382.222,318.282 384.752 L 316.625 386.375 311.193 386.043 C 299.861 385.348,281.290 382.954,273.513 381.186 L 271.566 380.743 271.755 379.603 C 271.957 378.386,272.776 375.436,274.098 371.167 L 274.914 368.534 279.089 368.348 C 281.699 368.232,285.374 367.815,288.889 367.237 C 296.257 366.024,296.110 366.024,297.196 367.261 " stroke="none" fill="#040404" fill-rule="evenodd"></path></g></svg>