<svg id="svg" version="1.1" xmlns="http://www.w3.org/2000/svg" xmlns:xlink="http://www.w3.org/1999/xlink" width="400" height="488.88888888888886" viewBox="0, 0, 400,488.88888888888886"><g id="svgg"><path id="path0" d="M219.745 47.009 C 200.453 49.780,185.834 61.234,183.355 75.521 C 179.700 96.575,190.708 114.792,211.204 121.613 C 225.345 126.319,244.515 125.360,253.573 119.493 C 257.720 116.807,261.154 115.031,262.722 114.760 C 270.613 113.401,274.732 98.848,271.673 83.135 C 266.779 57.997,245.639 43.290,219.745 47.009 M232.793 55.755 C 251.555 61.051,269.048 82.635,269.048 100.491 C 269.048 103.799,268.456 104.762,266.422 104.762 C 264.346 104.762,263.637 103.662,263.312 99.934 C 261.709 81.560,241.760 60.317,226.107 60.317 C 222.915 60.317,221.080 57.491,223.016 55.556 C 224.175 54.397,228.279 54.480,232.793 55.755 M174.056 113.242 C 173.927 113.758,173.204 115.232,172.451 116.515 C 171.698 117.799,170.766 119.463,170.380 120.214 C 168.278 124.307,158.937 132.056,152.282 135.228 C 143.555 139.387,140.371 140.399,118.452 145.975 C 98.685 151.005,92.842 153.229,84.250 158.995 C 65.842 171.347,57.624 201.131,63.926 232.650 C 68.512 255.583,79.537 279.205,87.136 282.381 C 90.246 283.680,92.430 286.759,92.456 289.881 C 92.523 297.719,99.569 306.770,112.598 315.753 C 130.506 328.100,163.457 336.996,172.379 331.894 C 173.338 331.345,174.664 330.960,175.602 330.957 C 178.917 330.947,181.759 327.707,182.498 323.093 C 183.258 318.358,185.935 315.873,190.278 315.873 C 200.309 315.873,200.646 330.154,190.848 340.049 C 187.485 343.446,187.426 342.992,191.482 344.892 C 207.774 352.527,246.677 354.128,266.865 347.995 C 275.537 345.360,279.447 343.655,283.036 340.944 C 285.278 339.249,285.370 338.889,283.561 338.889 C 276.259 338.889,258.889 333.041,252.976 328.592 C 252.103 327.936,250.851 327.014,250.193 326.544 C 248.733 325.502,246.169 322.053,244.472 318.849 C 242.846 315.781,243.006 315.902,240.256 315.675 C 229.692 314.806,213.873 309.816,205.357 304.667 C 194.893 298.341,187.130 290.707,183.714 283.388 C 183.038 281.939,182.346 280.486,182.176 280.159 C 182.006 279.831,181.463 278.135,180.970 276.389 C 180.477 274.643,180.009 272.991,179.930 272.718 C 179.851 272.445,179.431 272.222,178.995 272.222 C 174.589 272.222,161.693 263.804,159.299 259.365 C 158.910 258.645,158.817 258.662,157.179 259.746 C 153.732 262.026,133.860 259.968,124.443 256.354 C 123.985 256.179,122.808 255.808,121.825 255.530 C 119.287 254.811,109.786 251.071,106.839 249.629 C 105.471 248.960,104.285 248.413,104.203 248.413 C 103.219 248.413,91.549 240.963,88.295 238.257 C 83.566 234.325,73.793 224.424,72.977 222.736 C 70.009 216.607,76.371 209.650,82.725 212.077 C 84.034 212.577,85.753 214.038,89.368 217.723 C 99.396 227.944,106.965 233.033,119.643 238.077 C 120.079 238.251,120.972 238.613,121.627 238.882 C 124.860 240.210,137.108 243.651,138.602 243.651 C 139.352 243.651,139.189 243.380,137.499 241.824 C 136.408 240.819,134.356 238.924,132.938 237.612 C 121.511 227.043,116.690 217.157,117.857 206.687 C 118.368 202.105,120.116 196.359,121.824 193.651 C 122.168 193.105,122.711 192.130,123.030 191.485 C 123.939 189.649,128.987 184.813,131.442 183.427 C 138.997 179.164,149.191 179.074,160.290 183.173 C 163.090 184.206,163.528 184.186,162.405 183.076 C 161.739 182.417,158.406 177.985,156.632 175.397 C 155.483 173.721,152.327 168.957,150.980 166.865 C 150.277 165.774,148.520 163.042,147.074 160.795 C 145.628 158.548,144.444 156.614,144.444 156.496 C 144.444 156.378,143.664 155.270,142.710 154.034 C 139.176 149.453,139.270 145.441,142.988 142.176 C 148.100 137.688,152.563 139.902,158.905 150.072 C 168.528 165.503,174.911 174.342,178.685 177.461 L 180.462 178.930 184.958 173.493 C 198.061 157.647,209.007 148.639,217.556 146.666 C 226.883 144.514,229.660 159.347,220.448 162.120 C 214.496 163.911,198.662 179.949,188.927 194.048 C 185.645 198.801,183.551 201.963,182.883 203.175 C 182.462 203.938,181.564 205.456,180.888 206.548 C 170.785 222.844,166.591 240.548,170.940 248.539 C 175.193 256.353,191.298 261.385,196.925 256.657 C 198.036 255.724,199.339 254.692,199.822 254.365 C 203.862 251.624,206.432 250.068,213.690 245.972 C 218.274 243.385,222.292 241.098,222.619 240.890 C 222.946 240.682,224.196 239.947,225.397 239.256 C 232.786 235.005,240.364 228.142,255.678 211.830 C 261.725 205.389,262.421 204.957,266.306 205.238 C 270.436 205.537,273.209 208.613,273.212 212.901 C 273.215 215.955,272.946 216.363,266.270 223.461 C 250.550 240.170,243.565 246.579,236.111 251.128 C 233.579 252.673,224.218 258.058,221.032 259.801 C 219.831 260.458,218.224 261.374,217.460 261.836 C 216.696 262.298,215.536 262.973,214.881 263.336 C 212.311 264.761,209.178 266.953,205.981 269.564 C 202.450 272.448,201.766 272.816,198.725 273.468 C 196.556 273.933,196.519 274.034,197.676 276.305 C 205.237 291.150,234.032 303.080,254.349 299.785 C 265.717 297.941,270.665 293.105,291.989 263.002 C 299.917 251.809,305.562 249.108,310.568 254.114 C 314.206 257.752,313.827 261.767,309.389 266.601 C 307.244 268.938,303.195 274.125,300.794 277.614 C 299.300 279.785,296.711 283.360,291.096 291.005 C 287.258 296.230,277.780 306.066,274.405 308.326 C 271.950 309.970,265.117 313.482,264.296 313.521 C 263.963 313.538,262.990 313.860,262.133 314.239 L 260.576 314.926 262.579 316.159 C 274.485 323.485,295.384 325.903,311.111 321.775 C 331.465 316.432,346.526 302.561,351.777 284.325 C 352.154 283.016,352.612 281.498,352.795 280.952 C 352.979 280.407,353.432 278.660,353.804 277.070 L 354.479 274.180 353.003 272.037 C 351.549 269.926,345.713 264.004,340.278 259.125 C 335.368 254.717,333.374 252.423,332.914 250.654 C 332.679 249.749,332.312 248.337,332.100 247.516 C 331.638 245.731,332.248 239.244,333.379 233.929 C 339.665 204.369,339.948 205.107,317.920 193.586 C 315.812 192.484,313.016 190.968,311.706 190.219 C 310.397 189.470,309.058 188.704,308.730 188.516 C 308.403 188.329,307.367 187.859,306.429 187.471 C 299.997 184.814,300.249 176.338,307.006 168.043 C 313.267 160.357,311.722 151.197,302.723 142.648 C 296.161 136.415,286.420 131.527,278.968 130.727 C 276.410 130.452,274.618 129.803,273.349 128.693 C 272.765 128.182,272.383 128.274,269.976 129.508 C 268.483 130.274,266.548 131.021,265.675 131.168 C 264.802 131.316,263.016 132.093,261.706 132.896 C 254.511 137.308,250.001 138.717,239.484 139.837 C 212.689 142.690,189.059 133.086,175.996 114.032 C 174.634 112.045,174.382 111.943,174.056 113.242 M115.873 367.076 C 115.873 401.070,115.972 399.618,113.478 402.195 L 112.314 403.398 116.955 404.526 C 119.508 405.146,122.675 405.990,123.993 406.401 C 125.311 406.812,127.907 407.618,129.762 408.192 C 131.617 408.767,133.849 409.460,134.722 409.734 C 140.539 411.555,145.512 412.564,152.976 413.440 C 160.557 414.328,175.352 415.707,185.516 416.471 C 187.262 416.602,189.583 416.785,190.675 416.877 C 191.766 416.969,194.980 417.223,197.817 417.440 C 200.655 417.658,205.208 418.023,207.937 418.251 C 210.665 418.480,214.950 418.837,217.460 419.045 C 219.970 419.252,224.167 419.611,226.786 419.841 C 229.405 420.072,233.690 420.435,236.310 420.648 C 238.929 420.861,242.188 421.148,243.552 421.287 L 246.032 421.538 246.048 415.432 C 246.056 412.073,246.129 408.433,246.209 407.341 C 246.290 406.250,246.465 401.875,246.599 397.619 C 246.732 393.363,246.924 388.720,247.026 387.302 C 247.127 385.883,247.319 380.794,247.452 375.992 L 247.694 367.262 233.669 367.242 C 217.436 367.220,209.504 366.468,199.802 364.032 C 198.492 363.703,196.060 363.090,194.396 362.670 C 185.475 360.416,177.553 355.886,172.717 350.276 L 171.425 348.778 163.986 348.660 C 151.790 348.467,142.699 346.634,129.365 341.677 C 127.510 340.987,125.546 340.274,125.000 340.092 C 124.454 339.911,122.350 338.940,120.324 337.937 C 118.297 336.933,116.467 336.111,116.256 336.111 C 116.013 336.111,115.873 347.432,115.873 367.076 " stroke="none" fill="#b47c5c" fill-rule="evenodd"></path><path id="path1" d="M87.680 409.524 C 87.657 410.288,87.580 411.538,87.509 412.302 C 87.439 413.065,87.245 419.851,87.079 427.379 C 86.789 440.556,86.743 441.143,85.853 443.054 C 84.681 445.570,84.685 447.295,85.867 449.833 C 87.856 454.106,88.429 454.247,104.960 454.536 C 121.333 454.822,125.522 454.982,142.063 455.955 C 149.157 456.373,156.925 456.814,159.325 456.936 C 161.726 457.059,165.119 457.248,166.865 457.356 C 168.611 457.464,176.022 457.905,183.333 458.336 C 190.645 458.766,198.056 459.204,199.802 459.308 C 201.548 459.412,205.119 459.601,207.738 459.728 C 210.357 459.854,213.839 460.038,215.476 460.135 C 220.353 460.426,240.181 460.910,247.251 460.912 C 256.758 460.913,258.781 459.291,258.696 451.737 C 258.674 449.799,258.938 446.964,259.282 445.437 C 260.396 440.488,260.208 439.003,258.433 438.728 C 254.163 438.067,241.382 436.755,234.722 436.296 C 233.194 436.190,231.230 436.018,230.357 435.913 C 229.484 435.808,227.252 435.627,225.397 435.511 C 223.542 435.396,221.488 435.220,220.833 435.120 C 219.600 434.934,215.698 434.609,197.024 433.138 C 187.567 432.393,182.970 432.018,170.437 430.967 C 148.047 429.089,139.439 427.686,127.778 424.015 C 121.683 422.097,115.361 420.315,110.119 419.039 C 98.831 416.292,92.255 413.286,88.706 409.251 L 87.723 408.135 87.680 409.524 " stroke="none" fill="#ab1304" fill-rule="evenodd"></path><path id="path2" d="M223.413 30.845 C 220.317 31.076,214.399 31.823,213.095 32.147 C 212.331 32.337,210.813 32.700,209.722 32.954 C 185.126 38.665,166.667 59.343,166.667 81.185 C 166.667 81.961,166.269 82.719,165.462 83.481 C 163.598 85.240,163.130 86.530,162.904 90.538 C 161.559 114.324,154.459 120.620,118.908 129.552 C 102.220 133.744,100.980 134.095,93.728 136.684 C 90.411 137.868,91.060 137.578,84.325 140.885 C 65.249 150.251,54.473 164.677,48.468 188.889 C 45.926 199.136,45.295 218.896,47.213 228.175 C 47.417 229.157,47.698 230.942,47.839 232.143 C 48.447 237.315,52.337 252.263,54.551 257.937 C 54.849 258.700,55.754 261.022,56.562 263.095 C 58.188 267.271,59.110 269.340,61.952 275.198 C 66.419 284.403,66.951 285.189,72.296 290.466 C 75.760 293.887,77.411 295.808,77.590 296.627 C 79.560 305.627,88.045 317.354,97.536 324.197 L 100.000 325.973 99.997 348.205 L 99.993 370.437 96.524 371.526 C 93.462 372.488,92.743 372.907,90.387 375.098 C 87.809 377.496,87.647 377.580,85.550 377.610 C 83.105 377.646,81.605 378.461,78.558 381.413 C 73.300 386.506,71.285 402.252,71.246 438.556 L 71.230 453.104 72.426 454.826 C 77.030 461.454,89.595 457.086,85.902 450.141 C 84.619 447.728,84.601 445.164,85.849 442.816 C 86.751 441.120,86.786 440.679,87.079 427.380 C 87.245 419.851,87.439 413.065,87.509 412.302 C 87.580 411.538,87.657 410.288,87.680 409.524 L 87.723 408.135 88.706 409.251 C 92.255 413.286,98.831 416.292,110.119 419.039 C 115.361 420.315,121.683 422.097,127.778 424.015 C 139.439 427.686,148.047 429.089,170.437 430.967 C 182.970 432.018,187.567 432.393,197.024 433.138 C 215.721 434.611,219.598 434.933,220.833 435.120 C 221.488 435.220,223.542 435.396,225.397 435.511 C 227.252 435.627,229.484 435.808,230.357 435.913 C 231.230 436.018,233.194 436.190,234.722 436.296 C 241.382 436.755,254.163 438.067,258.433 438.728 C 260.248 439.009,260.369 440.285,259.154 446.360 C 258.597 449.146,258.511 450.410,258.804 451.474 C 259.278 453.191,258.937 455.299,257.897 457.084 C 255.062 461.949,262.690 467.752,268.469 465.127 C 271.911 463.564,272.292 462.668,274.225 451.601 C 277.229 434.402,274.006 425.653,263.918 423.623 L 261.706 423.178 261.726 419.029 C 261.747 414.642,262.283 396.935,262.476 394.246 C 262.640 391.972,263.276 370.550,263.275 367.361 C 263.274 364.934,263.349 364.683,264.078 364.683 C 266.316 364.683,280.054 360.642,282.828 359.168 C 283.215 358.962,284.616 358.257,285.941 357.600 C 293.539 353.835,298.964 348.353,301.335 342.047 C 302.396 339.224,302.099 339.394,307.540 338.495 C 316.547 337.007,322.776 335.012,330.994 330.984 C 334.660 329.187,334.628 329.206,338.884 326.427 C 342.462 324.091,344.050 322.843,347.771 319.444 C 357.329 310.715,363.498 300.535,367.250 287.302 C 368.024 284.573,368.826 281.806,369.034 281.151 C 372.171 271.234,368.674 263.926,354.527 250.837 C 347.206 244.064,347.618 244.579,347.876 242.521 C 348.086 240.846,349.939 231.492,350.836 227.579 C 354.433 211.890,352.768 199.662,346.091 192.746 C 343.282 189.836,335.846 185.174,324.802 179.398 C 319.862 176.815,320.025 176.998,321.216 175.369 C 327.667 166.541,328.282 153.568,322.745 143.104 C 319.947 137.816,312.848 129.706,308.532 126.867 C 307.659 126.292,306.230 125.325,305.357 124.717 C 300.701 121.473,292.791 117.775,287.698 116.461 C 286.280 116.094,284.890 115.727,284.611 115.643 C 284.227 115.529,284.292 115.121,284.880 113.968 C 288.101 107.654,289.195 97.331,287.865 85.795 C 287.263 80.566,286.978 79.079,285.492 73.413 C 284.794 70.752,281.919 63.230,281.306 62.464 C 281.116 62.226,280.402 60.985,279.719 59.705 C 278.647 57.697,277.193 55.551,274.637 52.208 C 273.263 50.412,267.123 44.509,264.881 42.829 C 259.077 38.480,253.778 35.942,244.246 32.944 C 240.199 31.671,228.345 30.477,223.413 30.845 M237.126 47.569 C 255.728 51.192,267.892 63.715,271.673 83.135 C 274.732 98.848,270.613 113.401,262.722 114.760 C 261.154 115.031,257.720 116.807,253.573 119.493 C 244.515 125.360,225.345 126.319,211.204 121.613 C 190.708 114.792,179.700 96.575,183.355 75.521 C 186.719 56.135,212.443 42.763,237.126 47.569 M223.016 55.556 C 221.080 57.491,222.915 60.317,226.107 60.317 C 241.760 60.317,261.709 81.560,263.312 99.934 C 263.637 103.662,264.346 104.762,266.422 104.762 C 268.456 104.762,269.048 103.799,269.048 100.491 C 269.048 85.471,256.041 66.589,240.278 58.727 C 233.003 55.098,224.952 53.619,223.016 55.556 M175.996 114.032 C 189.059 133.086,212.689 142.690,239.484 139.837 C 250.001 138.717,254.511 137.308,261.706 132.896 C 263.016 132.093,264.802 131.316,265.675 131.168 C 266.548 131.021,268.483 130.274,269.976 129.508 C 272.383 128.274,272.765 128.182,273.349 128.693 C 274.618 129.803,276.410 130.452,278.968 130.727 C 286.420 131.527,296.161 136.415,302.723 142.648 C 311.722 151.197,313.267 160.357,307.006 168.043 C 300.249 176.338,299.997 184.814,306.429 187.471 C 307.367 187.859,308.403 188.329,308.730 188.516 C 309.058 188.704,310.397 189.470,311.706 190.219 C 313.016 190.968,315.812 192.484,317.920 193.586 C 339.948 205.107,339.665 204.369,333.379 233.929 C 332.248 239.244,331.638 245.731,332.100 247.516 C 332.312 248.337,332.679 249.749,332.914 250.654 C 333.374 252.423,335.368 254.717,340.278 259.125 C 345.713 264.004,351.549 269.926,353.003 272.037 L 354.479 274.180 353.804 277.070 C 353.432 278.660,352.979 280.407,352.795 280.952 C 352.612 281.498,352.154 283.016,351.777 284.325 C 346.526 302.561,331.465 316.432,311.111 321.775 C 295.384 325.903,274.485 323.485,262.579 316.159 L 260.576 314.926 262.133 314.239 C 262.990 313.860,263.963 313.538,264.296 313.521 C 265.117 313.482,271.950 309.970,274.405 308.326 C 277.780 306.066,287.258 296.230,291.096 291.005 C 296.711 283.360,299.300 279.785,300.794 277.614 C 303.195 274.125,307.244 268.938,309.389 266.601 C 313.827 261.767,314.206 257.752,310.568 254.114 C 305.562 249.108,299.917 251.809,291.989 263.002 C 270.665 293.105,265.717 297.941,254.349 299.785 C 234.032 303.080,205.237 291.150,197.676 276.305 C 196.519 274.034,196.556 273.933,198.725 273.468 C 201.766 272.816,202.450 272.448,205.981 269.564 C 209.178 266.953,212.311 264.761,214.881 263.336 C 215.536 262.973,216.696 262.298,217.460 261.836 C 218.224 261.374,219.831 260.458,221.032 259.801 C 224.218 258.058,233.579 252.673,236.111 251.128 C 243.565 246.579,250.550 240.170,266.270 223.461 C 272.946 216.363,273.215 215.955,273.212 212.901 C 273.209 208.613,270.436 205.537,266.306 205.238 C 262.421 204.957,261.725 205.389,255.678 211.830 C 240.364 228.142,232.786 235.005,225.397 239.256 C 224.196 239.947,222.946 240.682,222.619 240.890 C 222.292 241.098,218.274 243.385,213.690 245.972 C 206.432 250.068,203.862 251.624,199.822 254.365 C 199.339 254.692,198.036 255.724,196.925 256.657 C 194.681 258.542,191.565 258.933,186.560 257.957 C 169.907 254.712,165.533 244.782,172.067 225.054 C 173.541 220.603,178.087 211.065,180.888 206.548 C 181.564 205.456,182.462 203.938,182.883 203.175 C 183.551 201.963,185.645 198.801,188.927 194.048 C 198.662 179.949,214.496 163.911,220.448 162.120 C 228.293 159.759,228.337 148.856,220.510 146.885 C 213.510 145.123,200.149 155.122,184.958 173.493 L 180.462 178.930 178.685 177.461 C 174.911 174.342,168.528 165.503,158.905 150.072 C 152.563 139.902,148.100 137.688,142.988 142.176 C 139.270 145.441,139.176 149.453,142.710 154.034 C 143.664 155.270,144.444 156.378,144.444 156.496 C 144.444 156.614,145.628 158.548,147.074 160.795 C 148.520 163.042,150.277 165.774,150.980 166.865 C 155.781 174.322,160.908 181.596,162.405 183.076 C 163.528 184.186,163.090 184.206,160.290 183.173 C 149.191 179.074,138.997 179.164,131.442 183.427 C 128.987 184.813,123.939 189.649,123.030 191.485 C 122.711 192.130,122.168 193.105,121.824 193.651 C 113.410 206.997,117.552 223.381,132.938 237.612 C 134.356 238.924,136.408 240.819,137.499 241.824 C 139.189 243.380,139.352 243.651,138.602 243.651 C 137.108 243.651,124.860 240.210,121.627 238.882 C 120.972 238.613,120.079 238.251,119.643 238.077 C 106.965 233.033,99.396 227.944,89.368 217.723 C 85.753 214.038,84.034 212.577,82.725 212.077 C 76.371 209.650,70.009 216.607,72.977 222.736 C 73.793 224.424,83.566 234.325,88.295 238.257 C 91.549 240.963,103.219 248.413,104.203 248.413 C 104.285 248.413,105.471 248.960,106.839 249.629 C 109.786 251.071,119.287 254.811,121.825 255.530 C 122.808 255.808,123.985 256.179,124.443 256.354 C 133.860 259.968,153.732 262.026,157.179 259.746 C 158.817 258.662,158.910 258.645,159.299 259.365 C 161.693 263.804,174.589 272.222,178.995 272.222 C 179.431 272.222,179.851 272.445,179.930 272.718 C 180.009 272.991,180.477 274.643,180.970 276.389 C 181.463 278.135,182.006 279.831,182.176 280.159 C 182.346 280.486,183.038 281.939,183.714 283.388 C 187.130 290.707,194.893 298.341,205.357 304.667 C 213.873 309.816,229.692 314.806,240.256 315.675 C 243.006 315.902,242.846 315.781,244.472 318.849 C 246.169 322.053,248.733 325.502,250.193 326.544 C 250.851 327.014,252.103 327.936,252.976 328.592 C 258.889 333.041,276.259 338.889,283.561 338.889 C 285.370 338.889,285.278 339.249,283.036 340.944 C 279.447 343.655,275.537 345.360,266.865 347.995 C 251.219 352.748,218.847 352.931,201.587 348.364 C 196.170 346.930,194.898 346.494,191.482 344.892 C 187.426 342.992,187.485 343.446,190.848 340.049 C 200.646 330.154,200.309 315.873,190.278 315.873 C 185.935 315.873,183.258 318.358,182.498 323.093 C 181.759 327.707,178.917 330.947,175.602 330.957 C 174.664 330.960,173.338 331.345,172.379 331.894 C 169.277 333.667,160.789 333.607,151.478 331.745 C 121.175 325.686,92.588 305.409,92.456 289.881 C 92.430 286.759,90.246 283.680,87.136 282.381 C 79.537 279.205,68.512 255.583,63.926 232.650 C 57.624 201.131,65.842 171.347,84.250 158.995 C 92.842 153.229,98.685 151.005,118.452 145.975 C 140.371 140.399,143.555 139.387,152.282 135.228 C 158.937 132.056,168.278 124.307,170.380 120.214 C 170.766 119.463,171.698 117.799,172.451 116.515 C 173.204 115.232,173.927 113.758,174.056 113.242 C 174.382 111.943,174.634 112.045,175.996 114.032 M152.976 197.280 C 155.159 197.946,157.123 198.630,157.341 198.800 C 157.560 198.970,158.185 199.244,158.730 199.409 C 159.276 199.573,160.634 200.309,161.747 201.044 C 162.861 201.780,163.977 202.381,164.228 202.381 C 164.970 202.381,164.770 203.076,163.047 206.485 C 158.723 215.044,155.759 223.229,154.360 230.479 C 153.392 235.495,153.631 235.181,151.962 233.631 C 151.210 232.934,149.256 231.196,147.619 229.768 C 134.997 218.763,131.761 212.679,134.263 204.656 C 136.981 195.936,142.038 193.943,152.976 197.280 M120.324 337.937 C 122.350 338.940,124.454 339.911,125.000 340.092 C 125.546 340.274,127.510 340.987,129.365 341.677 C 142.699 346.634,151.790 348.467,163.986 348.660 L 171.425 348.778 172.717 350.276 C 177.553 355.886,185.475 360.416,194.396 362.670 C 196.060 363.090,198.492 363.703,199.802 364.032 C 209.504 366.468,217.436 367.220,233.669 367.242 L 247.694 367.262 247.452 375.992 C 247.319 380.794,247.127 385.883,247.026 387.302 C 246.924 388.720,246.732 393.363,246.599 397.619 C 246.465 401.875,246.290 406.250,246.209 407.341 C 246.129 408.433,246.056 412.073,246.048 415.432 L 246.032 421.538 243.552 421.287 C 242.188 421.148,238.929 420.861,236.310 420.648 C 233.690 420.435,229.405 420.072,226.786 419.841 C 224.167 419.611,219.970 419.252,217.460 419.045 C 214.950 418.837,210.665 418.480,207.937 418.251 C 205.208 418.023,200.655 417.658,197.817 417.440 C 194.980 417.223,191.766 416.969,190.675 416.877 C 189.583 416.785,187.262 416.602,185.516 416.471 C 175.352 415.707,160.557 414.328,152.976 413.440 C 145.512 412.564,140.539 411.555,134.722 409.734 C 133.849 409.460,131.617 408.767,129.762 408.192 C 127.907 407.618,125.311 406.812,123.993 406.401 C 122.675 405.990,119.508 405.146,116.955 404.526 L 112.314 403.398 113.478 402.195 C 115.972 399.618,115.873 401.070,115.873 367.076 C 115.873 347.432,116.013 336.111,116.256 336.111 C 116.467 336.111,118.297 336.933,120.324 337.937 M99.920 395.734 L 99.802 398.214 99.059 396.851 C 98.214 395.300,98.315 391.594,99.259 389.484 C 99.876 388.107,100.156 390.764,99.920 395.734 " stroke="none" fill="#040404" fill-rule="evenodd"></path><path id="path3" d="M141.174 196.177 C 137.628 197.496,135.793 199.747,134.263 204.656 C 131.761 212.679,134.997 218.763,147.619 229.768 C 149.256 231.196,151.210 232.934,151.962 233.631 C 153.631 235.181,153.392 235.495,154.360 230.479 C 155.759 223.229,158.723 215.044,163.047 206.485 C 164.770 203.076,164.970 202.381,164.228 202.381 C 163.977 202.381,162.861 201.780,161.747 201.044 C 160.634 200.309,159.276 199.573,158.730 199.409 C 158.185 199.244,157.560 198.970,157.341 198.800 C 155.009 196.982,143.869 195.175,141.174 196.177 " stroke="none" fill="#a46c4c" fill-rule="evenodd"></path><path id="path4" d="M258.822 453.175 C 258.822 453.938,258.904 454.251,259.004 453.869 C 259.104 453.487,259.104 452.862,259.004 452.480 C 258.904 452.098,258.822 452.411,258.822 453.175 " stroke="none" fill="#2c4430" fill-rule="evenodd"></path></g></svg>