<?xml version="1.0" standalone="no"?>
<!DOCTYPE svg PUBLIC "-//W3C//DTD SVG 20010904//EN"
 "http://www.w3.org/TR/2001/REC-SVG-20010904/DTD/svg10.dtd">
<svg version="1.0" xmlns="http://www.w3.org/2000/svg"
 width="512.000000pt" height="512.000000pt" viewBox="0 0 512.000000 512.000000"
 preserveAspectRatio="xMidYMid meet">

<g transform="translate(0.000000,512.000000) scale(0.100000,-0.100000)"
fill="#000000" stroke="none">
<path d="M2390 4785 c-107 -30 -197 -100 -253 -196 -43 -74 -57 -148 -57 -309
0 -187 -2 -191 -129 -242 -51 -21 -101 -38 -112 -38 -34 0 -60 19 -159 115
-52 51 -113 102 -135 113 -155 78 -356 70 -490 -21 -91 -62 -172 -149 -208
-223 -30 -65 -32 -76 -32 -179 0 -105 2 -114 34 -179 26 -52 61 -98 147 -185
62 -64 115 -128 119 -142 9 -38 -59 -202 -97 -234 -29 -24 -34 -25 -176 -25
-81 0 -167 -5 -191 -11 -125 -28 -231 -116 -290 -238 l-36 -76 0 -155 c0 -137
3 -161 23 -210 46 -113 130 -197 242 -242 46 -18 83 -22 230 -27 138 -5 181
-10 200 -22 26 -17 100 -181 100 -220 0 -34 -19 -60 -115 -159 -51 -52 -102
-113 -113 -135 -78 -155 -70 -356 21 -490 62 -91 149 -172 223 -208 65 -30 76
-32 179 -32 105 0 114 2 179 34 52 26 98 61 185 147 64 62 128 115 142 119 38
9 202 -59 234 -97 24 -29 25 -34 25 -176 0 -81 5 -167 11 -191 36 -158 167
-285 330 -321 85 -19 279 -9 349 19 111 43 197 129 242 241 18 47 22 79 25
220 4 217 4 215 136 270 133 55 140 53 247 -55 96 -97 152 -136 231 -164 127
-43 255 -33 380 30 90 45 199 156 241 245 31 65 33 76 33 179 0 105 -2 114
-34 179 -26 52 -61 98 -147 185 -62 64 -115 128 -119 142 -6 23 5 55 72 217
13 32 61 42 205 42 79 0 163 5 187 11 158 36 285 167 321 330 19 85 9 279 -19
349 -43 112 -129 197 -241 242 -46 18 -82 22 -232 27 -211 7 -205 4 -263 145
-49 120 -46 130 60 236 97 96 136 152 164 231 42 124 33 253 -26 376 -41 86
-161 204 -249 245 -65 31 -75 33 -179 33 -105 0 -114 -2 -179 -34 -52 -26 -98
-61 -185 -147 -64 -62 -128 -115 -142 -119 -36 -9 -196 57 -231 96 -28 29 -28
30 -28 177 0 81 -5 167 -11 191 -29 125 -116 232 -238 290 -74 35 -79 36 -211
38 -97 2 -150 -1 -190 -12z m279 -321 c41 -29 51 -72 51 -221 0 -76 5 -158 11
-182 16 -70 59 -148 112 -202 51 -52 87 -73 232 -135 86 -37 95 -39 200 -39
106 0 113 1 180 34 54 27 97 61 186 148 125 122 153 137 206 110 43 -23 100
-90 112 -133 19 -68 0 -106 -109 -220 -107 -110 -132 -150 -156 -247 -25 -97
-15 -172 45 -316 60 -145 95 -198 166 -252 94 -71 137 -82 325 -86 91 -2 177
-8 191 -14 43 -17 59 -57 59 -151 0 -141 -15 -150 -245 -159 -187 -6 -230 -17
-319 -78 -70 -48 -118 -117 -171 -242 -61 -146 -73 -208 -57 -300 19 -110 58
-174 187 -308 109 -114 115 -122 115 -162 0 -37 -6 -48 -47 -89 -30 -30 -64
-53 -90 -60 -72 -22 -110 -3 -229 110 -110 107 -150 132 -247 156 -98 26 -171
15 -320 -46 -146 -60 -222 -116 -273 -200 -51 -83 -64 -151 -64 -323 l0 -149
-34 -34 c-34 -34 -35 -34 -123 -34 -147 0 -156 13 -164 245 -6 196 -21 250
-93 338 -55 68 -99 98 -226 152 -131 57 -216 73 -306 58 -107 -19 -165 -54
-294 -180 -126 -122 -154 -137 -207 -110 -43 23 -100 90 -112 133 -19 68 0
106 109 220 107 110 132 150 156 246 24 91 14 165 -41 305 -54 140 -101 211
-171 265 -93 70 -135 81 -337 87 l-179 6 -29 33 c-27 30 -29 37 -29 120 0 146
13 155 250 162 l175 5 75 36 c126 60 171 115 256 314 37 86 39 95 39 200 0
106 -1 113 -34 180 -27 54 -61 97 -148 186 -122 125 -137 153 -110 206 23 43
90 100 133 112 68 19 106 0 220 -109 110 -107 150 -132 247 -156 97 -25 172
-15 316 45 145 60 198 95 252 166 71 94 82 137 86 325 4 179 12 213 52 235 38
21 189 20 220 -1z"/>
<path d="M2410 3346 c-187 -40 -340 -130 -460 -271 -227 -268 -252 -656 -60
-948 278 -426 876 -490 1235 -132 358 359 294 957 -132 1235 -75 50 -143 79
-243 107 -78 21 -260 26 -340 9z m265 -321 c172 -45 305 -179 350 -352 65
-249 -94 -511 -350 -578 -251 -65 -513 94 -580 350 -89 343 237 669 580 580z"/>
</g>
</svg>
